<?xml version="1.0" standalone="no"?>
<!DOCTYPE svg PUBLIC "-//W3C//DTD SVG 20010904//EN"
 "http://www.w3.org/TR/2001/REC-SVG-20010904/DTD/svg10.dtd">
<svg version="1.0" xmlns="http://www.w3.org/2000/svg"
 width="960.000000pt" height="960.000000pt" viewBox="0 0 960.000000 960.000000"
 preserveAspectRatio="xMidYMid meet">
<metadata>
Created by potrace 1.11, written by Peter Selinger 2001-2013
</metadata>
<g transform="translate(0.000000,960.000000) scale(0.100000,-0.100000)"
fill="#000000" stroke="none">
<path d="M4646 9343 c-1 -1 -54 -5 -117 -9 -62 -3 -130 -8 -149 -10 -100 -9
-153 -14 -177 -18 -16 -3 -50 -8 -78 -12 -49 -6 -66 -9 -115 -19 -14 -2 -41
-7 -60 -10 -19 -4 -75 -15 -125 -26 -49 -12 -97 -22 -105 -24 -8 -1 -35 -9
-60 -16 -25 -7 -49 -13 -55 -15 -5 -1 -30 -7 -55 -15 -25 -7 -49 -13 -55 -15
-15 -3 -138 -44 -155 -51 -8 -4 -19 -7 -25 -8 -15 -1 -174 -62 -250 -95 -16
-8 -32 -14 -35 -15 -30 -7 -80 -31 -80 -39 0 -5 -3 -7 -6 -3 -8 7 -344 -162
-444 -224 -14 -9 -54 -33 -90 -54 -36 -21 -66 -42 -68 -47 -2 -4 -10 -8 -18
-8 -8 0 -14 -4 -14 -9 0 -5 -8 -11 -17 -15 -20 -6 -50 -25 -69 -42 -6 -6 -54
-40 -105 -77 -52 -36 -112 -82 -134 -102 -22 -19 -43 -35 -46 -35 -3 0 -22
-15 -41 -32 -19 -18 -54 -49 -77 -68 -80 -66 -86 -72 -83 -81 1 -5 -2 -8 -6
-7 -5 2 -39 -27 -75 -63 -37 -36 -67 -65 -67 -63 0 1 -28 -27 -62 -63 -35 -36
-62 -71 -60 -77 2 -6 1 -8 -3 -4 -6 6 -55 -34 -55 -46 0 -2 -16 -21 -35 -42
-19 -20 -32 -41 -28 -47 3 -5 1 -7 -4 -4 -6 4 -23 -10 -39 -31 -15 -20 -35
-42 -44 -49 -8 -7 -11 -13 -6 -13 6 0 3 -6 -5 -12 -30 -25 -98 -115 -92 -122
3 -3 2 -6 -4 -6 -10 0 -109 -135 -112 -152 -1 -4 -13 -20 -26 -34 -14 -15 -23
-29 -21 -31 2 -3 -4 -13 -15 -24 -10 -10 -19 -26 -19 -34 0 -8 -4 -15 -8 -15
-5 0 -17 -17 -28 -37 -10 -21 -22 -40 -25 -43 -8 -8 -81 -138 -114 -205 -17
-33 -32 -62 -35 -65 -8 -7 -55 -109 -64 -137 -4 -13 -12 -23 -17 -23 -5 0 -9
-7 -9 -15 0 -8 -4 -23 -10 -33 -9 -16 -27 -59 -65 -152 -10 -25 -24 -59 -31
-77 -8 -17 -14 -36 -14 -42 0 -6 -4 -19 -9 -29 -8 -14 -20 -43 -26 -62 -1 -3
-12 -39 -26 -80 -13 -41 -24 -79 -24 -85 0 -5 -2 -12 -6 -15 -8 -8 -74 -259
-84 -320 -1 -8 -7 -33 -13 -55 -6 -22 -14 -62 -18 -90 -3 -27 -8 -59 -11 -70
-11 -47 -20 -107 -29 -190 -3 -33 -8 -71 -11 -85 -23 -122 -34 -589 -19 -790
4 -47 9 -108 11 -136 2 -28 6 -66 9 -85 3 -19 8 -59 11 -89 12 -110 16 -135
21 -150 3 -8 8 -28 10 -45 10 -71 36 -190 44 -206 5 -9 7 -19 4 -21 -2 -3 3
-32 11 -64 9 -32 18 -70 21 -84 3 -13 8 -27 12 -30 4 -3 7 -9 7 -15 0 -30 31
-135 39 -135 5 0 7 -3 3 -6 -6 -6 81 -265 92 -274 5 -5 10 -17 15 -45 1 -5 9
-26 18 -45 9 -19 24 -56 34 -82 11 -27 23 -48 27 -48 5 0 6 -4 3 -8 -15 -24
258 -524 377 -692 83 -118 226 -305 306 -399 158 -189 452 -473 620 -601 18
-14 38 -30 44 -36 31 -28 195 -145 307 -219 217 -142 440 -263 675 -365 55
-24 118 -51 140 -60 182 -79 618 -203 860 -245 50 -8 99 -17 110 -19 11 -2 47
-7 80 -10 33 -4 71 -9 85 -11 184 -33 849 -39 1002 -10 9 2 41 6 70 9 213 24
472 74 673 131 50 14 97 27 106 29 39 10 267 88 351 122 901 358 1647 973
2175 1794 33 52 71 113 83 135 12 22 37 67 56 100 67 116 189 374 184 391 -1
4 3 10 10 14 6 4 12 13 14 21 1 8 7 23 13 34 19 36 145 387 157 440 2 6 8 30
15 55 8 25 14 50 15 55 2 6 8 30 15 55 7 25 14 52 16 60 2 9 15 67 29 131 14
63 28 135 30 159 3 25 5 45 6 45 3 0 10 39 14 75 3 19 7 49 10 65 2 17 8 59
11 95 4 36 9 68 11 72 2 4 0 10 -6 13 -7 4 -8 11 -1 18 21 26 31 413 16 662
-10 184 -11 193 -18 240 -4 22 -9 65 -12 95 -2 30 -7 66 -10 80 -4 14 -8 36
-10 50 -13 95 -20 132 -41 223 -13 56 -26 113 -29 127 -8 42 -11 53 -28 115
-10 33 -22 78 -28 100 -6 22 -14 47 -17 55 -3 8 -6 17 -7 20 -10 41 -111 320
-135 375 -10 22 -32 73 -50 114 -66 151 -222 448 -243 462 -5 3 -8 10 -8 15 1
5 -5 16 -12 24 -7 9 -16 22 -19 30 -7 20 -161 252 -179 270 -8 8 -20 27 -28
42 -8 15 -18 25 -23 22 -4 -3 -8 1 -8 9 0 8 -13 29 -29 46 -16 17 -26 31 -23
31 4 0 0 6 -8 13 -9 7 -27 28 -40 47 -14 19 -34 44 -45 56 -11 11 -40 45 -65
74 -85 102 -213 229 -223 223 -6 -3 -7 -1 -4 4 6 9 -107 122 -208 208 -16 14
-39 34 -50 45 -43 42 -149 118 -157 114 -5 -3 -7 -1 -6 4 3 10 -55 62 -70 62
-6 0 -12 3 -14 8 -7 17 -61 51 -71 45 -5 -3 -8 -2 -5 3 4 5 -15 23 -40 41
-111 74 -321 203 -332 203 -4 0 -13 7 -20 15 -7 8 -16 13 -20 10 -5 -3 -10 -1
-12 4 -3 8 -262 139 -348 175 -25 10 -63 27 -85 37 -74 33 -250 99 -265 99 -9
0 -20 4 -25 8 -24 21 -472 144 -573 157 -15 2 -27 4 -27 5 0 3 -42 10 -81 14
-23 2 -46 6 -50 9 -8 5 -81 16 -149 23 -16 1 -55 6 -85 9 -97 11 -113 12 -230
20 -109 7 -419 13 -424 8z"/>
</g>
</svg>
